<svg width="108" height="598" viewBox="0 0 108 598" fill="none" xmlns="http://www.w3.org/2000/svg">
<path d="M5.0184 30.1395L2.81014 84.22L1.89355 124.221V246.509V369.94V493.371L2.81013 596.23H29.9675H64.3973H83.5377L106.355 576.394L105.382 493.137V365.854V243.755V119.928L102.655 40.201L98.081 11.0757L61.9587 20.2187L29.9675 1.93262L5.0184 30.1395Z" stroke="#1233E1" stroke-width="3"/>
<path d="M5.0184 405.736L2.81014 423.934L1.89355 437.395V478.546V520.082V561.617L2.81013 596.23H29.9675H64.3973H83.5377L106.355 589.555L105.382 561.538V518.707V477.619V435.951L102.655 409.122L98.081 399.321L61.9587 402.398L29.9675 396.244L5.0184 405.736Z" fill="#1233E1" stroke="#1233E1" stroke-width="3"/>
</svg>
