<svg width="108" height="604" viewBox="0 0 108 604" fill="none" xmlns="http://www.w3.org/2000/svg">
<path d="M4.69027 35.4928L2.48202 89.5286L1.56543 129.496V251.684V375.013V498.342L2.48201 601.117L25.0692 590.763L64.0691 601.117H83.2095L106.027 581.297L105.053 498.109V370.931V248.932V125.207V82.2202L102.327 45.546L97.7529 16.4446L61.6306 25.5801L4.69027 3.0459V35.4928Z" stroke="#1233E1" stroke-width="3"/>
<path d="M4.69027 294.217L2.48202 323.536L1.56543 345.222V411.519V478.436V545.353L2.48201 601.117L25.0692 590.363L64.0691 601.117H83.2095L106.027 590.363L105.053 545.226V476.221V410.026V342.895V319.57L102.327 299.671L103.415 277.726L61.6306 288.838L4.69027 276.611V294.217Z" fill="#1233E1" stroke="#1233E1" stroke-width="3"/>
</svg>
