<svg width="108" height="603" viewBox="0 0 108 603" fill="none" xmlns="http://www.w3.org/2000/svg">
<path d="M5.34528 35.4928L3.15826 89.5286L2.25049 129.496V251.684V375.013V498.342L8.71654 588.936L30.0545 601.117H64.1532H83.1096L105.707 581.297L104.743 498.109V370.931V248.932V125.207V82.2202L102.043 45.546L97.5131 16.4446L64.9712 3.0459L35.2273 20.7079L5.34528 3.0459V35.4928Z" stroke="#1233E1" stroke-width="3"/>
<path d="M5.34528 461.049L3.15826 474.43L2.25049 484.328V514.585V545.126V575.666L11.303 597.124L30.0545 601.117H64.1532H83.1096L105.707 596.209L104.743 575.609V544.115V513.904V483.266V472.62L102.043 463.539L97.5131 456.332L64.9712 453.014L35.2273 457.388L5.34528 453.014V461.049Z" fill="#1233E1" stroke="#1233E1" stroke-width="3"/>
</svg>
