<svg width="110" height="562" viewBox="0 0 110 562" fill="none" xmlns="http://www.w3.org/2000/svg">
<path d="M5.423 29.0757L3.20004 79.7592L2.27734 117.247V231.854V347.532V463.21L3.20003 559.608H30.5383H65.1974H84.4653L107.434 541.018L106.455 462.99V343.703V229.273V113.224L103.71 38.5052L99.1056 11.2094L62.7427 19.7781L30.5383 2.64062L5.423 29.0757Z" stroke="#1233E1" stroke-width="3"/>
<path d="M4.97976 160.446L2.74532 198.579L1.81787 226.785V313.012V400.046V487.08L2.74531 559.608H30.2246H65.0625H84.4298L107.517 545.622L106.533 486.915V397.165V311.071V223.758L103.774 167.54L103.774 147.629L62.5951 153.451L30.2246 140.557L4.97976 160.446Z" fill="#1233E1" stroke="#1233E1" stroke-width="3"/>
</svg>
