<svg width="110" height="566" viewBox="0 0 110 566" fill="none" xmlns="http://www.w3.org/2000/svg">
<path d="M5.60855 33.2818L3.38558 83.9235L2.46289 121.381V235.893V351.475V467.058L3.38557 563.377L26.1232 553.673L65.383 563.377H84.6509L107.62 544.802L106.64 466.839V347.65V233.314V117.361V77.0741L103.896 42.7035L99.2912 15.4302L62.9282 23.9918L5.60855 2.87305V33.2818Z" stroke="#1233E1" stroke-width="3"/>
<path d="M5.67767 86.7932L3.46452 132.323L2.5459 165.999V268.952V372.866V476.781L3.46451 563.377H26.7058H65.1882H84.371L107.239 546.677L106.263 476.584V369.427V266.633V162.385V126.165L103.531 95.2638L104.621 61.1858L62.7443 78.441L5.67767 59.4541V86.7932Z" fill="#1233E1" stroke="#1233E1" stroke-width="3"/>
</svg>
