<svg width="109" height="565" viewBox="0 0 109 565" fill="none" xmlns="http://www.w3.org/2000/svg">
<path d="M5.6242 33.0933L3.42261 83.735L2.50879 121.192V235.704V351.287V466.869L9.01791 551.773L30.498 563.188H64.8239H83.9065L106.655 544.614L105.684 466.65V347.461V233.126V117.173V76.8857L102.966 42.515L98.406 15.2417L65.6473 2.68457L35.7053 19.2371L5.6242 2.68457V33.0933Z" stroke="#1233E1" stroke-width="3"/>
<path d="M5.25872 273.893L3.04557 301.53L2.12695 321.972V384.466V447.545V510.623L11.2876 554.941L30.2631 563.188H64.7692H83.9521L106.82 553.051L105.844 510.503V445.457V383.059V319.779V297.792L103.112 279.035L98.5277 264.151L65.597 257.298L35.4978 266.331L5.25872 257.298V273.893Z" fill="#1233E1" stroke="#1233E1" stroke-width="3"/>
</svg>
