<svg width="380" height="380" viewBox="0 0 380 380" fill="none" xmlns="http://www.w3.org/2000/svg">
<path fill-rule="evenodd" clip-rule="evenodd" d="M16.4422 119.877L186.004 211.791V0.323047L190 0L219.025 2.34642L238.275 24.1691L274.369 20.789L299.391 36.453L321.849 55.9553L331.949 78.8389L336.705 102.757L346.923 132.538L357.04 168.872L380 192.545L378.885 223.175L373.343 253.266H354.219L337.929 277.71L331.949 333.421L310.975 354.676L287.165 372.311L257.845 353.599L230.092 362.848L210.248 372.311L175.004 380L171.107 375.839L143.354 366.59L108.103 380L71.237 362.848L38.7834 302.777L60.5749 277.71L16.497 282.114L6.6573 253.266L1.11498 223.175L0 192.545L16.497 162.095L11.0521 132.538L16.4422 119.877Z" fill="#1233E1"/>
<path d="M60.4258 276.218L17.5324 280.503L8.11253 252.886L2.61001 223.011L1.5139 192.899L17.8159 162.809L18.0681 162.344L17.9722 161.823L12.609 132.71L24.2964 105.258L40.0016 79.7214L58.7593 57.5585L84.0543 61.2056L85.0833 61.354L85.5834 60.4426L106.696 21.9666L133.106 10.7584L161.217 3.8318L190 1.50489L218.3 3.79276L237.151 25.1614L237.655 25.7337L238.415 25.6625L274.003 22.3298L298.496 37.6623L320.612 56.8679L330.51 79.2936L335.234 103.05L335.254 103.149L335.287 103.244L345.49 132.983L355.595 169.274L355.697 169.642L355.963 169.916L378.478 193.13L377.39 223.01L372.094 251.766H354.219H353.416L352.97 252.434L336.681 276.878L336.477 277.185L336.438 277.55L330.514 332.74L309.989 353.54L287.102 370.491L258.652 352.335L258.049 351.95L257.371 352.176L229.617 361.425L229.529 361.454L229.446 361.494L209.759 370.882L175.517 378.353L172.202 374.813L171.942 374.536L171.581 374.415L143.828 365.167L143.32 364.998L142.82 365.188L108.162 378.373L72.3204 361.697L40.5966 302.977L61.707 278.694L64.1868 275.842L60.4258 276.218Z" stroke="#1233E1" stroke-width="3"/>
</svg>
