<svg width="380" height="380" viewBox="0 0 380 380" fill="none" xmlns="http://www.w3.org/2000/svg">
<path fill-rule="evenodd" clip-rule="evenodd" d="M319.504 53.9188L299.391 36.453L274.369 20.789L238.276 24.1691L219.025 2.34642L190 0L178.348 0.942034L183.963 211.187L319.504 53.9188Z" fill="#1233E1"/>
<path d="M60.4257 276.218L17.5324 280.503L8.11253 252.886L2.61001 223.011L1.5139 192.899L17.8158 162.809L18.0681 162.344L17.9721 161.823L12.609 132.71L24.2964 105.258L40.0016 79.7214L58.7593 57.5585L84.0542 61.2056L85.0832 61.354L85.5833 60.4426L106.696 21.9666L133.106 10.7584L161.217 3.8318L190 1.50489L218.3 3.79276L237.15 25.1614L237.655 25.7337L238.415 25.6625L274.003 22.3298L298.495 37.6623L320.612 56.8679L330.51 79.2936L335.234 103.05L335.254 103.149L335.286 103.244L345.49 132.983L355.595 169.274L355.697 169.642L355.963 169.916L378.477 193.13L377.39 223.01L372.093 251.766H354.218H353.415L352.97 252.434L336.681 276.878L336.477 277.185L336.438 277.55L330.513 332.74L309.988 353.54L287.101 370.491L258.652 352.335L258.049 351.95L257.37 352.176L229.617 361.425L229.529 361.454L229.446 361.494L209.759 370.882L175.517 378.353L172.202 374.813L171.942 374.536L171.581 374.415L143.828 365.167L143.32 364.998L142.82 365.188L108.162 378.373L72.3203 361.697L40.5966 302.977L61.7069 278.694L64.1867 275.842L60.4257 276.218Z" stroke="#1233E1" stroke-width="3"/>
</svg>
